<svg xmlns="http://www.w3.org/2000/svg" version="1.1" xmlns:xlink="http://www.w3.org/1999/xlink" xmlns:svgjs="http://svgjs.com/svgjs" width="1200" height="400" preserveAspectRatio="none" viewBox="0 0 1200 400"><g mask="url(&quot;#SvgjsMask1142&quot;)" fill="none"><path d="M600 834.06C759.46 821.95 882.87 709.11 994.66 594.66 1104.63 482.1 1211.03 357.15 1219.29 200 1227.9 35.85 1158.18-125.92 1038.34-238.34 921.86-347.61 759.6-388.28 600-380.93 448.1-373.93 314.05-300.57 200.37-199.63 77.59-90.57-42.74 36.2-54.15 200-66.12 372.48 16.48 539.01 140.66 659.34 262.95 777.85 430.18 846.94 600 834.06" fill="rgba(13, 17, 23, 1)"></path><path d="M600 725.36C732.12 715.33 834.38 621.83 927 527 1018.12 433.74 1106.28 330.21 1113.13 200 1120.26 63.99 1062.49-70.05 963.2-163.2 866.68-253.73 732.24-287.43 600-281.34 474.14-275.54 363.07-214.76 268.88-131.12 167.15-40.76 67.44 64.28 57.99 200 48.07 342.91 116.51 480.89 219.4 580.6 320.73 678.79 459.29 736.04 600 725.36" fill="rgba(23, 27, 34, 1)"></path><path d="M600 616.67C704.79 608.71 785.89 534.56 859.35 459.35 931.61 385.38 1001.53 303.27 1006.96 200 1012.62 92.13 966.8-14.18 888.05-88.05 811.51-159.86 704.88-186.58 600-181.75 500.18-177.15 412.09-128.95 337.39-62.61 256.7 9.05 177.63 92.36 170.13 200 162.26 313.34 216.54 422.78 298.15 501.85 378.51 579.73 488.4 625.13 600 616.67" fill="rgba(14, 68, 41, 1)"></path><path d="M600 507.97C677.45 502.09 737.39 447.28 791.69 391.69 845.11 337.02 896.79 276.33 900.8 200 904.98 120.27 871.12 41.7 812.91-12.91 756.33-65.98 677.52-85.74 600-82.17 526.22-78.77 461.11-43.13 405.89 5.89 346.26 58.87 287.81 120.44 282.27 200 276.46 283.78 316.58 364.66 376.89 423.11 436.29 480.67 517.52 514.23 600 507.97" fill="rgba(0, 109, 50, 1)"></path><path d="M600 399.28C650.12 395.47 688.9 360.01 724.04 324.04 758.6 288.66 792.04 249.39 794.63 200 797.34 148.41 775.43 97.57 737.76 62.24 701.16 27.89 650.16 15.11 600 17.42 552.26 19.62 510.13 42.68 474.4 74.4 435.81 108.68 398 148.52 394.41 200 390.65 254.21 416.61 306.55 455.64 344.36 494.07 381.61 546.63 403.32 600 399.28" fill="rgba(38, 166, 65, 1)"></path><path d="M600 290.58C622.78 288.85 640.41 272.73 656.38 256.38 672.09 240.3 687.29 222.45 688.47 200 689.7 176.55 679.74 153.44 662.62 137.38 645.98 121.77 622.8 115.96 600 117.01 578.3 118.01 559.15 128.49 542.91 142.91 525.37 158.49 508.18 176.6 506.55 200 504.84 224.64 516.64 248.43 534.38 265.62 551.85 282.55 575.74 292.42 600 290.58" fill="rgba(57, 211, 83, 1)"></path></g><defs><mask id="SvgjsMask1142"><rect width="1200" height="400" fill="#ffffff"></rect></mask></defs></svg>